# xmcd CD database file
#
# Track frame offsets:
#	150
#	17520
#	30176
#	47772
#	67884
#	83036
#	98380
#	112129
#	133235
#	151990
#	168655
#	185192
#	202607
#	219095
#	234655
#	251905
#	265760
#	284870
#	305061
#	327246
#
# Disc length: 4550 seconds
#
# Revision: 0
# Processed by: cddbd v1.5.2PL0 Copyright (c) Steve Scherf et al.
# Submitted via: CDex 1.81
#
DISCID=1811c414
DTITLE=Various Artist - TSP Country and Americana Vol 158
DYEAR=2016
DGENRE=Country
TTITLE0=Corianda Blue - Drive
TTITLE1=Emo LeBlanc - Where The Flame Goes
TTITLE2=Maria Carmi - Boomerang
TTITLE3=Meg Devlin Irish - Deeper Shade Of Blue
TTITLE4=Jeff Keith - Always and Forever (Redneck Love Song)
TTITLE5=Ella Walker - Good Thing It Ain't Raining
TTITLE6=David Cannady - Rockin' In My Stingray
TTITLE7=Ken Lawson - And A Little Boy
TTITLE8=Billy Cherry - Save Me
TTITLE9=J C Hyke - Your Heart's In Good Hands
TTITLE10=Jeff Keith - Tequila Daze
TTITLE11=T J Leonard - Up On That Hill
TTITLE12=Sheriff Bud Torres - Cop On The Street
TTITLE13=Zach Thomas - How 'Bout Sending Me A Song
TTITLE14=Flink Westrock - To Give My Love To You
TTITLE15=Slim Andrews (L A Huntington) - Born To Win
TTITLE16=Tony Clarke - Night Time Don't Come Easy
TTITLE17=Cameron Malloy - Pardon My Heart
TTITLE18=Cornbread and Ice Tea - You Don't Have To Rush Off
TTITLE19=Flink Westrock - These People Who Love Me
EXTD=YEAR: 2016
EXTT0=
EXTT1=
EXTT2=
EXTT3=
EXTT4=
EXTT5=
EXTT6=
EXTT7=
EXTT8=
EXTT9=
EXTT10=
EXTT11=
EXTT12=
EXTT13=
EXTT14=
EXTT15=
EXTT16=
EXTT17=
EXTT18=
EXTT19=
PLAYORDER=
